<svg xmlns="http://www.w3.org/2000/svg" xmlns:xlink="http://www.w3.org/1999/xlink" version="1.1" data-diagram-type="DESCRIPTION" style="width:2019px;height:932px;background:#FFFFFF;" width="2019px" height="932px" viewBox="0 0 2019 932" zoomAndPan="magnify" preserveAspectRatio="none" contentStyleType="text/css"><?plantuml 1.2026.7beta11?><defs/><g font-family="sans-serif" lengthAdjust="spacing"><!--cluster MobileApp--><g class="cluster" data-qualified-name="MobileApp" id="ent0001" data-source-line="5"><path d="M8.5,6 L202.431,6 A3.75,3.75 0 0 1 204.931,8.5 L211.931,28.297 L2001.5,28.297 A2.5,2.5 0 0 1 2004,30.797 L2004,797.4 A2.5,2.5 0 0 1 2001.5,799.9 L8.5,799.9 A2.5,2.5 0 0 1 6,797.4 L6,8.5 A2.5,2.5 0 0 1 8.5,6" style="stroke:#000;stroke-width:1.5;" fill="none"/><line x1="6" y1="28.297" x2="211.931" y2="28.297" style="stroke:#000;stroke-width:1.5;"/><text x="10" y="20.995" fill="#000" font-size="14" textLength="192.931" font-weight="700">Aplikacja mobilna VI3DR</text></g><!--cluster Android--><g class="cluster" data-qualified-name="MobileApp.Android" id="ent0002" data-source-line="7"><path d="M32.5,174.53 L339.647,174.53 A3.75,3.75 0 0 1 342.147,177.03 L349.147,196.827 L968.5,196.827 A2.5,2.5 0 0 1 971,199.327 L971,446.22 A2.5,2.5 0 0 1 968.5,448.72 L32.5,448.72 A2.5,2.5 0 0 1 30,446.22 L30,177.03 A2.5,2.5 0 0 1 32.5,174.53" style="stroke:#000;stroke-width:1.5;" fill="none"/><line x1="30" y1="196.827" x2="349.147" y2="196.827" style="stroke:#000;stroke-width:1.5;"/><text x="34" y="189.525" fill="#000" font-size="14" textLength="306.147" font-weight="700">androidMain — implementacja Android</text></g><!--cluster Common--><g class="cluster" data-qualified-name="MobileApp.Common" id="ent0008" data-source-line="15"><path d="M1116.5,335.12 L1391.97,335.12 A3.75,3.75 0 0 1 1394.47,337.62 L1401.47,357.417 L1401.5,357.417 A2.5,2.5 0 0 1 1404,359.917 L1404,773.4 A2.5,2.5 0 0 1 1401.5,775.9 L1116.5,775.9 A2.5,2.5 0 0 1 1114,773.4 L1114,337.62 A2.5,2.5 0 0 1 1116.5,335.12" style="stroke:#000;stroke-width:1.5;" fill="none"/><line x1="1114" y1="357.417" x2="1401.47" y2="357.417" style="stroke:#000;stroke-width:1.5;"/><text x="1118" y="350.115" fill="#000" font-size="14" textLength="274.47" font-weight="700">commonMain — kod współdzielony</text></g><!--cluster IOS--><g class="cluster" data-qualified-name="MobileApp.IOS" id="ent0014" data-source-line="24"><path d="M1438.5,166.53 L1740.411,166.53 A3.75,3.75 0 0 1 1742.911,169.03 L1749.911,188.827 L1823.5,188.827 A2.5,2.5 0 0 1 1826,191.327 L1826,454.22 A2.5,2.5 0 0 1 1823.5,456.72 L1438.5,456.72 A2.5,2.5 0 0 1 1436,454.22 L1436,169.03 A2.5,2.5 0 0 1 1438.5,166.53" style="stroke:#000;stroke-width:1.5;" fill="none"/><line x1="1436" y1="188.827" x2="1749.911" y2="188.827" style="stroke:#000;stroke-width:1.5;"/><text x="1440" y="181.525" fill="#000" font-size="14" textLength="300.911" font-weight="700">iosMain i iosApp — implementacja iOS</text></g><g class="entity" data-qualified-name="MobileApp.GMN17" id="ent0018" data-source-line="30"><path d="M1693.64,41 L1693.64,111.531 L1942.356,111.531 L1942.356,51 L1932.356,41 L1693.64,41" style="stroke:#181818;stroke-width:0.5;" fill="#FEFFDD"/><path d="M1932.356,41 L1932.356,51 L1942.356,51 L1932.356,41" style="stroke:#181818;stroke-width:1;" fill="#FEFFDD"/><text x="1699.64" y="58.067" fill="#000" font-size="13" textLength="171.615">Implementacja częściowa:</text><text x="1699.64" y="73.2" fill="#000" font-size="13" textLength="187.027">- brak rozpoznawania mowy,</text><text x="1699.64" y="88.333" fill="#000" font-size="13" textLength="139.572">- brak syntezy mowy,</text><text x="1699.64" y="103.465" fill="#000" font-size="13" textLength="227.716">- brak wykrywania serwera w sieci.</text></g><!--entity AndroidHost--><g class="entity" data-qualified-name="MobileApp.Android.AndroidHost" id="ent0003" data-source-line="8"><rect x="532.29" y="209.53" width="221.426" height="62.594" fill="#F1F1F1" style="stroke:#181818;stroke-width:0.5;" rx="2.5" ry="2.5"/><rect x="733.716" y="214.53" width="15" height="10" fill="#F1F1F1" style="stroke:#181818;stroke-width:0.5;"/><rect x="731.716" y="216.53" width="4" height="2" fill="#F1F1F1" style="stroke:#181818;stroke-width:0.5;"/><rect x="731.716" y="220.53" width="4" height="2" fill="#F1F1F1" style="stroke:#181818;stroke-width:0.5;"/><text x="547.29" y="242.525" fill="#000" font-size="14" textLength="93.734">Host aplikacji</text><text x="547.29" y="258.822" fill="#000" font-size="14" textLength="181.426">MainActivity / AndroidApp</text></g><!--entity AndroidCamera--><g class="entity" data-qualified-name="MobileApp.Android.AndroidCamera" id="ent0004" data-source-line="9"><rect x="45.93" y="370.12" width="280.133" height="62.594" fill="#F1F1F1" style="stroke:#181818;stroke-width:0.5;" rx="2.5" ry="2.5"/><rect x="306.063" y="375.12" width="15" height="10" fill="#F1F1F1" style="stroke:#181818;stroke-width:0.5;"/><rect x="304.063" y="377.12" width="4" height="2" fill="#F1F1F1" style="stroke:#181818;stroke-width:0.5;"/><rect x="304.063" y="381.12" width="4" height="2" fill="#F1F1F1" style="stroke:#181818;stroke-width:0.5;"/><text x="60.93" y="403.115" fill="#000" font-size="14" textLength="240.133">Rejestrowanie i kodowanie obrazu</text><text x="60.93" y="419.412" fill="#000" font-size="14" textLength="239.894">CameraX / CameraAnalyzer / JPEG</text></g><!--entity Discovery--><g class="entity" data-qualified-name="MobileApp.Android.Discovery" id="ent0005" data-source-line="10"><rect x="591.79" y="370.12" width="186.419" height="62.594" fill="#F1F1F1" style="stroke:#181818;stroke-width:0.5;" rx="2.5" ry="2.5"/><rect x="758.209" y="375.12" width="15" height="10" fill="#F1F1F1" style="stroke:#181818;stroke-width:0.5;"/><rect x="756.209" y="377.12" width="4" height="2" fill="#F1F1F1" style="stroke:#181818;stroke-width:0.5;"/><rect x="756.209" y="381.12" width="4" height="2" fill="#F1F1F1" style="stroke:#181818;stroke-width:0.5;"/><text x="606.79" y="403.115" fill="#000" font-size="14" textLength="146.193">Wykrywanie serwera</text><text x="606.79" y="419.412" fill="#000" font-size="14" textLength="146.419">Android NSD / mDNS</text></g><!--entity Voice--><g class="entity" data-qualified-name="MobileApp.Android.Voice" id="ent0006" data-source-line="11"><rect x="361.16" y="370.12" width="195.688" height="62.594" fill="#F1F1F1" style="stroke:#181818;stroke-width:0.5;" rx="2.5" ry="2.5"/><rect x="536.848" y="375.12" width="15" height="10" fill="#F1F1F1" style="stroke:#181818;stroke-width:0.5;"/><rect x="534.848" y="377.12" width="4" height="2" fill="#F1F1F1" style="stroke:#181818;stroke-width:0.5;"/><rect x="534.848" y="381.12" width="4" height="2" fill="#F1F1F1" style="stroke:#181818;stroke-width:0.5;"/><text x="376.16" y="403.115" fill="#000" font-size="14" textLength="155.688">Rozpoznawanie mowy</text><text x="376.16" y="419.412" fill="#000" font-size="14" textLength="129.541">SpeechRecognizer</text></g><!--entity TTS--><g class="entity" data-qualified-name="MobileApp.Android.TTS" id="ent0007" data-source-line="12"><rect x="812.77" y="370.12" width="142.464" height="62.594" fill="#F1F1F1" style="stroke:#181818;stroke-width:0.5;" rx="2.5" ry="2.5"/><rect x="935.234" y="375.12" width="15" height="10" fill="#F1F1F1" style="stroke:#181818;stroke-width:0.5;"/><rect x="933.234" y="377.12" width="4" height="2" fill="#F1F1F1" style="stroke:#181818;stroke-width:0.5;"/><rect x="933.234" y="381.12" width="4" height="2" fill="#F1F1F1" style="stroke:#181818;stroke-width:0.5;"/><text x="827.77" y="403.115" fill="#000" font-size="14" textLength="102.464">Synteza mowy</text><text x="827.77" y="419.412" fill="#000" font-size="14" textLength="99.627">TextToSpeech</text></g><!--entity UI--><g class="entity" data-qualified-name="MobileApp.Common.UI" id="ent0009" data-source-line="16"><rect x="1184.13" y="370.12" width="203.741" height="62.594" fill="#F1F1F1" style="stroke:#181818;stroke-width:0.5;" rx="2.5" ry="2.5"/><rect x="1367.871" y="375.12" width="15" height="10" fill="#F1F1F1" style="stroke:#181818;stroke-width:0.5;"/><rect x="1365.871" y="377.12" width="4" height="2" fill="#F1F1F1" style="stroke:#181818;stroke-width:0.5;"/><rect x="1365.871" y="381.12" width="4" height="2" fill="#F1F1F1" style="stroke:#181818;stroke-width:0.5;"/><text x="1199.13" y="403.115" fill="#000" font-size="14" textLength="149.604">Interfejs użytkownika</text><text x="1199.13" y="419.412" fill="#000" font-size="14" textLength="163.741">Compose Multiplatform</text></g><!--entity Controller--><g class="entity" data-qualified-name="MobileApp.Common.Controller" id="ent0010" data-source-line="17"><rect x="1158.19" y="542.72" width="229.629" height="62.594" fill="#F1F1F1" style="stroke:#181818;stroke-width:0.5;" rx="2.5" ry="2.5"/><rect x="1367.819" y="547.72" width="15" height="10" fill="#F1F1F1" style="stroke:#181818;stroke-width:0.5;"/><rect x="1365.819" y="549.72" width="4" height="2" fill="#F1F1F1" style="stroke:#181818;stroke-width:0.5;"/><rect x="1365.819" y="553.72" width="4" height="2" fill="#F1F1F1" style="stroke:#181818;stroke-width:0.5;"/><text x="1173.19" y="575.715" fill="#000" font-size="14" textLength="189.629">Kontroler transmisji i stanu</text><text x="1173.19" y="592.012" fill="#000" font-size="14" textLength="141.784">StreamingController</text></g><!--entity WSClient--><g class="entity" data-qualified-name="MobileApp.Common.WSClient" id="ent0011" data-source-line="18"><rect x="1165.74" y="697.31" width="172.528" height="62.594" fill="#F1F1F1" style="stroke:#181818;stroke-width:0.5;" rx="2.5" ry="2.5"/><rect x="1318.268" y="702.31" width="15" height="10" fill="#F1F1F1" style="stroke:#181818;stroke-width:0.5;"/><rect x="1316.268" y="704.31" width="4" height="2" fill="#F1F1F1" style="stroke:#181818;stroke-width:0.5;"/><rect x="1316.268" y="708.31" width="4" height="2" fill="#F1F1F1" style="stroke:#181818;stroke-width:0.5;"/><text x="1180.74" y="730.305" fill="#000" font-size="14" textLength="123.088">Klient WebSocket</text><text x="1180.74" y="746.602" fill="#000" font-size="14" textLength="132.528">FrameSocketClient</text></g><!--entity IOSHost--><g class="entity" data-qualified-name="MobileApp.IOS.IOSHost" id="ent0015" data-source-line="25"><rect x="1506.56" y="209.53" width="240.888" height="62.594" fill="#F1F1F1" style="stroke:#181818;stroke-width:0.5;" rx="2.5" ry="2.5"/><rect x="1727.448" y="214.53" width="15" height="10" fill="#F1F1F1" style="stroke:#181818;stroke-width:0.5;"/><rect x="1725.448" y="216.53" width="4" height="2" fill="#F1F1F1" style="stroke:#181818;stroke-width:0.5;"/><rect x="1725.448" y="220.53" width="4" height="2" fill="#F1F1F1" style="stroke:#181818;stroke-width:0.5;"/><text x="1521.56" y="242.525" fill="#000" font-size="14" textLength="93.734">Host aplikacji</text><text x="1521.56" y="258.822" fill="#000" font-size="14" textLength="200.888">iOSApp / MainViewController</text></g><!--entity IOSCamera--><g class="entity" data-qualified-name="MobileApp.IOS.IOSCamera" id="ent0016" data-source-line="26"><rect x="1460.2" y="370.12" width="333.597" height="62.594" fill="#F1F1F1" style="stroke:#181818;stroke-width:0.5;" rx="2.5" ry="2.5"/><rect x="1773.797" y="375.12" width="15" height="10" fill="#F1F1F1" style="stroke:#181818;stroke-width:0.5;"/><rect x="1771.797" y="377.12" width="4" height="2" fill="#F1F1F1" style="stroke:#181818;stroke-width:0.5;"/><rect x="1771.797" y="381.12" width="4" height="2" fill="#F1F1F1" style="stroke:#181818;stroke-width:0.5;"/><text x="1475.2" y="403.115" fill="#000" font-size="14" textLength="240.133">Rejestrowanie i kodowanie obrazu</text><text x="1475.2" y="419.412" fill="#000" font-size="14" textLength="293.597">AVFoundation / IosCameraManager / JPEG</text></g><!--entity IWebSocket--><g class="entity" data-qualified-name="IWebSocket" id="ent0020" data-source-line="38"><ellipse cx="1252" cy="886.05" rx="8" ry="8" fill="#F1F1F1" style="stroke:#181818;stroke-width:0.5;"/><text x="1165.488" y="916.045" fill="#000" font-size="14" textLength="173.024">Komunikacja WebSocket</text></g><!--entity Server--><g class="entity" data-qualified-name="Server" id="ent0021" data-source-line="39"><rect x="1369.59" y="862.9" width="208.827" height="46.297" fill="#F1F1F1" style="stroke:#181818;stroke-width:0.5;" rx="2.5" ry="2.5"/><rect x="1558.417" y="867.9" width="15" height="10" fill="#F1F1F1" style="stroke:#181818;stroke-width:0.5;"/><rect x="1556.417" y="869.9" width="4" height="2" fill="#F1F1F1" style="stroke:#181818;stroke-width:0.5;"/><rect x="1556.417" y="873.9" width="4" height="2" fill="#F1F1F1" style="stroke:#181818;stroke-width:0.5;"/><text x="1384.59" y="895.895" fill="#000" font-size="14" textLength="168.827">Część serwerowa VI3DR</text></g><!--link UI to Controller--><g class="link" data-entity-1="ent0009" data-entity-2="ent0010" id="lnk12" data-source-line="20" data-link-type="dependency"><path d="M1283.68,432.92 C1281.32,463.87 1278.07,506.544 1275.71,537.504" style="stroke:#181818;stroke-width:1;" fill="none" id="UI-to-Controller"/><polygon points="1275.33,542.49,1280.002,533.82,1275.71,537.504,1272.026,533.212,1275.33,542.49" fill="#181818" style="stroke:#181818;stroke-width:1;stroke-linejoin:miter;stroke-miterlimit:10;"/><text x="1296.79" y="493.787" fill="#000" font-size="13" textLength="95.024">odczytuje stan</text><text x="1280" y="508.92" fill="#000" font-size="13" textLength="128.604">i wywołuje operacje</text></g><!--link Controller to WSClient--><g class="link" data-entity-1="ent0010" data-entity-2="ent0011" id="lnk13" data-source-line="21" data-link-type="dependency"><path d="M1268.8,605.53 C1265.15,632.05 1260.572,665.347 1256.912,691.937" style="stroke:#181818;stroke-width:1;" fill="none" id="Controller-to-WSClient"/><polygon points="1256.23,696.89,1261.42,688.52,1256.912,691.937,1253.495,687.429,1256.23,696.89" fill="#181818" style="stroke:#181818;stroke-width:1;stroke-linejoin:miter;stroke-miterlimit:10;"/><text x="1279.419" y="648.377" fill="#000" font-size="13" textLength="105.758">zleca transmisję</text><text x="1265" y="663.51" fill="#000" font-size="13" textLength="134.596">i odbiera odpowiedzi</text></g><!--link GMN17 to IOS--><g class="link" data-entity-1="ent0018" data-entity-2="ent0014" id="lnk19" data-source-line="30" data-link-type="association"><path d="M1818,111.74 C1818,123.483 1818,137.203 1818,151.216 C1818,154.719 1818,158.241 1818,161.754 C1818,162.633 1818,163.51 1818,164.387 C1818,164.826 1818,165.264 1818,165.702 C1818,165.921 1818,188.437 1818,188.656" style="stroke:#181818;stroke-width:1;stroke-dasharray:7,7;" fill="none" id="GMN17-IOS"/></g><!--link AndroidHost to UI--><g class="link" data-entity-1="ent0003" data-entity-2="ent0009" id="lnk22" data-source-line="43" data-link-type="dependency"><path d="M753.98,247.82 C860.3,256.42 1023.81,277.2 1157,327.12 C1186.06,338.02 1212.1,352.257 1236.02,367.077" style="stroke:#181818;stroke-width:1;" fill="none" id="AndroidHost-to-UI"/><polygon points="1240.27,369.71,1234.726,361.57,1236.02,367.077,1230.513,368.37,1240.27,369.71" fill="#181818" style="stroke:#181818;stroke-width:1;stroke-linejoin:miter;stroke-miterlimit:10;"/><text x="1131" y="315.187" fill="#000" font-size="13" textLength="160.405">osadza wspólny interfejs</text></g><!--link AndroidHost to Controller--><g class="link" data-entity-1="ent0003" data-entity-2="ent0010" id="lnk23" data-source-line="44" data-link-type="dependency"><path d="M753.86,248.64 C813.79,255.97 887.49,271.08 947,302.12 C1003.96,331.83 1011.31,442.17 1043,472.72 C1075.7,504.23 1115.237,524.931 1156.157,540.511" style="stroke:#181818;stroke-width:1;" fill="none" id="AndroidHost-to-Controller"/><polygon points="1160.83,542.29,1153.842,535.349,1156.157,540.511,1150.996,542.826,1160.83,542.29" fill="#181818" style="stroke:#181818;stroke-width:1;stroke-linejoin:miter;stroke-miterlimit:10;"/><text x="1044" y="405.987" fill="#000" font-size="13" textLength="122.224">tworzy i obserwuje</text></g><!--link AndroidHost to AndroidCamera--><g class="link" data-entity-1="ent0003" data-entity-2="ent0004" id="lnk24" data-source-line="45" data-link-type="dependency"><path d="M531.85,242.68 C417.44,246 249.66,258.45 204,302.12 C186.07,319.27 182.461,342.931 182.851,364.891" style="stroke:#181818;stroke-width:1;" fill="none" id="AndroidHost-to-AndroidCamera"/><polygon points="182.94,369.89,186.78,360.82,182.851,364.891,178.781,360.962,182.94,369.89" fill="#181818" style="stroke:#181818;stroke-width:1;stroke-linejoin:miter;stroke-miterlimit:10;"/><text x="205" y="315.187" fill="#000" font-size="13" textLength="123.049">uruchamia kamerę</text></g><!--link AndroidHost to Discovery--><g class="link" data-entity-1="ent0003" data-entity-2="ent0005" id="lnk25" data-source-line="46" data-link-type="dependency"><path d="M531.94,261.67 C490.35,273.84 458.46,292.33 483,319.12 C496.71,334.09 554.83,320.44 574,327.12 C601.26,336.63 624.376,351.309 644.976,366.929" style="stroke:#181818;stroke-width:1;" fill="none" id="AndroidHost-to-Discovery"/><polygon points="648.96,369.95,644.205,361.325,644.976,366.929,639.372,367.7,648.96,369.95" fill="#181818" style="stroke:#181818;stroke-width:1;stroke-linejoin:miter;stroke-miterlimit:10;"/><text x="484" y="315.187" fill="#000" font-size="13" textLength="115.762">wyszukuje serwer</text></g><!--link Discovery to AndroidHost--><g class="link" data-entity-1="ent0005" data-entity-2="ent0003" id="lnk29" data-source-line="51" data-link-type="dependency"><path d="M663.31,369.95 C654.19,355.31 644.64,337.08 640,319.12 C636.1,304.04 635.852,291.725 637.292,277.335" style="stroke:#181818;stroke-width:1;" fill="none" id="Discovery-to-AndroidHost"/><polygon points="637.79,272.36,632.914,280.917,637.292,277.335,640.874,281.714,637.79,272.36" fill="#181818" style="stroke:#181818;stroke-width:1;stroke-linejoin:miter;stroke-miterlimit:10;"/><text x="641" y="315.187" fill="#000" font-size="13" textLength="124.871">zwraca adres i port</text></g><!--link AndroidHost to Voice--><g class="link" data-entity-1="ent0003" data-entity-2="ent0006" id="lnk26" data-source-line="47" data-link-type="dependency"><path d="M531.79,249.5 C455.99,257.32 365.16,272.67 341,302.12 C336.21,307.96 337.49,312.43 341,319.12 C352.17,340.37 367.456,354.484 387.436,367.144" style="stroke:#181818;stroke-width:1;" fill="none" id="AndroidHost-to-Voice"/><polygon points="391.66,369.82,386.199,361.624,387.436,367.144,381.917,368.382,391.66,369.82" fill="#181818" style="stroke:#181818;stroke-width:1;stroke-linejoin:miter;stroke-miterlimit:10;"/><text x="342" y="315.187" fill="#000" font-size="13" textLength="123.849">uruchamia nasłuch</text></g><!--link AndroidHost to TTS--><g class="link" data-entity-1="ent0003" data-entity-2="ent0007" id="lnk27" data-source-line="48" data-link-type="dependency"><path d="M716.35,272.54 C734.41,281.21 753.33,291.26 770,302.12 C800.44,321.95 827.798,345.793 849.768,366.583" style="stroke:#181818;stroke-width:1;" fill="none" id="AndroidHost-to-TTS"/><polygon points="853.4,370.02,849.612,360.929,849.768,366.583,844.114,366.739,853.4,370.02" fill="#181818" style="stroke:#181818;stroke-width:1;stroke-linejoin:miter;stroke-miterlimit:10;"/><text x="794" y="315.187" fill="#000" font-size="13" textLength="144.447">przekazuje odpowiedź</text></g><!--link AndroidCamera to Controller--><g class="link" data-entity-1="ent0004" data-entity-2="ent0010" id="lnk28" data-source-line="50" data-link-type="dependency"><path d="M243.62,433.16 C296.8,459.79 378.85,496.51 455,512.72 C585.84,540.56 960.205,559.793 1152.845,568.173" style="stroke:#181818;stroke-width:1;" fill="none" id="AndroidCamera-to-Controller"/><polygon points="1157.84,568.39,1149.022,564.003,1152.845,568.173,1148.675,571.995,1157.84,568.39" fill="#181818" style="stroke:#181818;stroke-width:1;stroke-linejoin:miter;stroke-miterlimit:10;"/><text x="456" y="501.287" fill="#000" font-size="13" textLength="144.155">przekazuje klatki JPEG</text></g><!--link Voice to Controller--><g class="link" data-entity-1="ent0006" data-entity-2="ent0010" id="lnk30" data-source-line="52" data-link-type="dependency"><path d="M500.06,433.12 C521.13,447.37 547.82,463.23 574,472.72 C770.96,544.08 1011.414,564.651 1152.874,570.581" style="stroke:#181818;stroke-width:1;" fill="none" id="Voice-to-Controller"/><polygon points="1157.87,570.79,1149.045,566.417,1152.874,570.581,1148.71,574.41,1157.87,570.79" fill="#181818" style="stroke:#181818;stroke-width:1;stroke-linejoin:miter;stroke-miterlimit:10;"/><text x="703" y="501.287" fill="#000" font-size="13" textLength="169.92">inicjuje żądanie informacji</text></g><!--link IOSHost to UI--><g class="link" data-entity-1="ent0015" data-entity-2="ent0009" id="lnk31" data-source-line="55" data-link-type="dependency"><path d="M1530.93,272.49 C1506.47,281.22 1480.47,291.32 1457,302.12 C1413.92,321.95 1371.656,346.465 1338.026,367.205" style="stroke:#181818;stroke-width:1;" fill="none" id="IOSHost-to-UI"/><polygon points="1333.77,369.83,1343.53,368.51,1338.026,367.205,1339.331,361.701,1333.77,369.83" fill="#181818" style="stroke:#181818;stroke-width:1;stroke-linejoin:miter;stroke-miterlimit:10;"/><text x="1458" y="315.187" fill="#000" font-size="13" textLength="160.405">osadza wspólny interfejs</text></g><!--link IOSHost to Controller--><g class="link" data-entity-1="ent0015" data-entity-2="ent0010" id="lnk32" data-source-line="56" data-link-type="dependency"><path d="M1745.29,272.52 C1771.36,285.07 1795.72,302.62 1811,327.12 C1845.24,382.03 1851.37,422.14 1811,472.72 C1759.54,537.18 1535.402,560.051 1393.272,568.281" style="stroke:#181818;stroke-width:1;" fill="none" id="IOSHost-to-Controller"/><polygon points="1388.28,568.57,1397.496,572.043,1393.272,568.281,1397.034,564.056,1388.28,568.57" fill="#181818" style="stroke:#181818;stroke-width:1;stroke-linejoin:miter;stroke-miterlimit:10;"/><text x="1840" y="405.987" fill="#000" font-size="13" textLength="122.224">tworzy i obserwuje</text></g><!--link IOSHost to IOSCamera--><g class="link" data-entity-1="ent0015" data-entity-2="ent0016" id="lnk33" data-source-line="57" data-link-type="dependency"><path d="M1627,272.4 C1627,300.4 1627,336.62 1627,364.66" style="stroke:#181818;stroke-width:1;" fill="none" id="IOSHost-to-IOSCamera"/><polygon points="1627,369.66,1631,360.66,1627,364.66,1623,360.66,1627,369.66" fill="#181818" style="stroke:#181818;stroke-width:1;stroke-linejoin:miter;stroke-miterlimit:10;"/><text x="1628" y="315.187" fill="#000" font-size="13" textLength="123.049">uruchamia kamerę</text></g><!--link IOSCamera to Controller--><g class="link" data-entity-1="ent0016" data-entity-2="ent0010" id="lnk34" data-source-line="58" data-link-type="dependency"><path d="M1571.95,433.01 C1529.97,455.93 1470.46,487.54 1417,512.72 C1395.42,522.88 1376.274,531.253 1354.384,540.393" style="stroke:#181818;stroke-width:1;" fill="none" id="IOSCamera-to-Controller"/><polygon points="1349.77,542.32,1359.616,542.543,1354.384,540.393,1356.534,535.161,1349.77,542.32" fill="#181818" style="stroke:#181818;stroke-width:1;stroke-linejoin:miter;stroke-miterlimit:10;"/><text x="1482" y="501.287" fill="#000" font-size="13" textLength="144.155">przekazuje klatki JPEG</text></g><!--link WSClient to IWebSocket--><!--link WSClient to IWebSocket--><g class="link" data-entity-1="ent0011" data-entity-2="ent0020" id="lnk37" data-source-line="65" data-link-type="dependency"><path d="M1252,760.32 C1252,796.77 1252,850.33 1252,871.81" style="stroke:#181818;stroke-width:1;stroke-dasharray:7,7;" fill="none" id="WSClient-to-IWebSocket-1"/><polygon points="1252,876.81,1256,867.81,1252,871.81,1248,867.81,1252,876.81" fill="#181818" style="stroke:#181818;stroke-width:1;stroke-linejoin:miter;stroke-miterlimit:10;"/><text x="1253" y="828.967" fill="#000" font-size="13" textLength="85.389">wykorzystuje</text></g><!--link IWebSocket to Server--><!--reverse link IWebSocket to Server--><g class="link" data-entity-1="ent0020" data-entity-2="ent0021" id="lnk39" data-source-line="66" data-link-type="extension"><path d="M1279.26,886.05 C1298.21,886.05 1325.37,886.05 1369.23,886.05" style="stroke:#181818;stroke-width:1;stroke-dasharray:7,7;" fill="none" id="IWebSocket-backto-Server"/><polygon points="1261.26,886.05,1279.26,892.05,1279.26,880.05,1261.26,886.05" fill="none" style="stroke:#181818;stroke-width:1;stroke-linejoin:miter;stroke-miterlimit:10;"/><text x="1279.29" y="879.117" fill="#000" font-size="13" textLength="72.382">udostępnia</text></g><?plantuml-src dLJDZjis4BxhAOYzzDBT0EqjXmA6jsdTOfDWjTaj4FT0KsERbZGZa5HKgIrG15Zq1NenyXYv5Rd5Vf4-IOUKBCi_G1VLHQBupJU_tzXKOo6Dp8MYl204TB6hCn1bddqLsVxMBcL2bSQ5cClCGkIe48x4Z9oZN2JQW7AQC8eAgLAv074nAZATIhMI8gUPpb2A-ydNrxSNGbfnu__0g2Z4hr4a-Ecj92Q6T78ZDOf__lXBwBp88EUe0jEelGqStJSpYExfCn0NtvDrGdOHw2bwlX57-4wxMZpRsN80GoflT8xi5bPWdQ5AeWQXHKf9zqqp8vjoYcEPWv4_CNFxDKAPrGqO_l73ws-_6pff0UVSFDIfgLjU2wPYr1HtIRwChvahltuP1wvhRHMz0rEV3PUQWXgKBLLELJt5k01GorjGj43DWGMMUz8ApZ74DJfeP6Tx1x-uEsePWjtTNHoiVZ_g7JFaX7thk4oYiiNdZzltIQCX8wo3-JZ0plTjmexD75PMbDjFjKkfGcuX5zX3B8YRCdEwoAIRaya3svl9EPuV2RbX6NV06OasrtQbkNFMIUHsnSw0p7cOnoqiwmgoFvxbpBH_Fy0i9fM2c-8BLWQqXt6u32mFSNk8Uf8t4t5v-Ss0NZmNbAYcTkKAGb1JrAAgAzg-zt-euEQhrRut0qjFjFF0D4q6IkwJtAmz4oKppGpyBbYpmDK_sozDDZIBAqFMY_5KSFfLEt2JL_7JXCO6dkcPyCpt6ggZ4ZFH_vVPwFu5bPX8lsdOnOHigwORYPpGWThOpq1fNUP83eJVN3JtW3w8oK7Egjcijn-KPkVFUyYbu1XIOGRQQlNnvJ741l7Kvo-hdSRbJkEY4bQ3qbS12fY4A2EEsD42t9BJQWklWpIa0Z_TUOdTSkt7iKsxFqP7rHs7h3P_TduvkS4-Zi7mDl5ElzZjgMYm5CFGyH3pr5gPy688iiwmxe9YlPx03uRTLMIu93oPC--UP_m4Vx0UsQGqfLgoIAL8_Q_D-iIYNuAChchRb6bGKqZl11nstG4jIijgKyiJAAyt1XQcWPIdpiknaz7sxoWw3FCaqO5LobigrM4YetseWrI3GrPmnLgNGYO6B5Ue8EEYDjeJTerQhJptzjFcCMbbWduJUktvth7weavXJ-dP4FfV_HfYUt6TxTF-zgdbuSXVKrEh5M6dU6Zr-FbZ9HgeSBDsfi6QczMlliktIvqaW3_paa0VqtxozvzxbD6BfMDOD-diSIYYfXVzvh4NoEPnx-tgQkWX35pgIsJz1ezQKd6LmTnT_NQ4B1CkssPTiER_1G00?></g></svg>